<svg version="1" xmlns="http://www.w3.org/2000/svg" width="1088" height="1088" viewBox="0 0 816.000000 816.000000"><path d="M0 161.2l.1 90.3 202.3 245.9c111.2 135.3 202.7 246.1 203.3 246.3.5.2 93-109.3 205.6-243.2L816 256.9V71H0v90.2zm774.7-62c-6.2 7.3-40.5 47.5-76.1 89.3-35.7 41.8-65.8 77-67 78.2-1.5 1.5-5 2.8-11.8 4.3-13.9 3-26.4 7.4-53 18.9-34.9 14.9-46.5 18.4-65 19.7-11.2.7-23.3-.7-31.3-3.7-9.3-3.5-13.8-8.4-20.7-22.9-8.2-17.2-9.3-18.2-23.9-22.5-4.3-1.3-12-4.2-16.9-6.4-11.8-5.2-18.7-6.5-27.7-5.1-12.1 1.9-16 4.4-25.4 16.2-4.6 5.8-10.2 11.8-12.4 13.5-8.1 6.3-18 6.7-23.5 1-1.7-1.8-6.2-8.7-10-15.4-12.7-22.3-31.2-42.6-50.7-55.3-21.2-13.9-37.8-15.5-58.1-5.4-7.6 3.7-10.9 6.1-18.1 13.2-4.8 4.8-11.2 12.4-14.2 16.9-3 4.5-5.7 8.2-6 8.3-.3 0-2.1-1.9-4-4.2-1.8-2.4-30.8-36.9-64.4-76.8-33.6-39.9-61.4-73.1-61.9-73.8-.6-.9 75-1.2 376.4-1.2h377.1l-11.4 13.2zM76.8 187c6.8 3.6 14.1 10.3 21 19.5 2.5 3.3 6.7 8.3 9.4 11.1l5 5.2-9.9 12.5c-5.4 7-10.4 12.6-11.1 12.7-2.3 0-2.4-2.8-.3-9 2.5-7.1 2.8-17.8.7-21.9-2.2-4.2-8.1-8.9-12.8-10.1-8.7-2.4-18.8 1.2-27.5 9.6-14 13.7-15.7 33.3-3.9 44.2 5.6 5.1 10.3 6.7 19.9 6.5 5.7 0 7.7.3 7.7 1.2 0 1.4-22.4 10.8-24.4 10.3-.7-.2-6-5.4-11.9-11.6-12-12.7-17-21.3-18.6-32-2.1-13.2 3.3-28.4 13.7-39.1 9.1-9.3 18.5-13.3 29.8-12.8 5.6.3 8.2 1 13.2 3.7zm649.7 15.6c1.2 3 2.7 4.1 9.7 7.4 18.8 8.7 47.6 17.9 58.6 18.7 4 .3 7.5.9 7.7 1.3.8 1.2-25.5 32.2-26.8 31.7-.7-.2-1.2-2.2-1.2-4.5 0-3-.6-4.8-2.3-6.4-3.4-3.4-13.6-3.1-21.7.6-6 2.7-11.5 7-11.5 9 0 1.4 9.1 15.5 11.5 17.9 1.4 1.5 2.7 1.7 6.2 1.2 3.3-.5 4.3-.3 4.3.7 0 2-27.7 35.2-29.6 35.6-1.3.3-1.5-.3-.9-3.6.6-3.5.3-4.4-2.7-7.7l-3.3-3.8-20.5.7c-32.6 1-46 1.8-45.4 2.7.8 1.4 34.4 28.7 40.1 32.6 5.1 3.5 5.5 3.6 8.9 2.4 2-.7 4-.9 4.4-.5.5.5-2.5 5.1-6.7 10.2-8 9.8-9.3 10.3-9.9 3.7-.3-4.1-1.2-5-22.3-22.3-19.2-15.7-29.5-22.7-33.6-22.8-2-.1-3.8-.4-4.2-.7-.3-.4 2.3-4.2 5.8-8.4 15.9-19.4 22.3-26.8 23.2-26.8.6 0 1.8 1.3 2.7 3 1.5 2.8 2.1 3 8.1 3.3 3.5.1 9.5-.1 13.4-.5l7-.8-8.5-6.3c-7.7-5.9-8.7-6.3-12.1-5.8-6.5 1-6.4.8 6.2-14.7 1.6-2 3.4-3.7 4-3.7.5 0 .9 1.8.9 3.9 0 3.6.7 4.5 8.1 11.5 17 16 43 35.6 47.3 35.6 1.6 0 1.7-.5 1.1-3.8-1.5-8.4-14.3-32.8-26.1-49.8-6.4-9.3-11.4-14.4-14-14.4-.8 0-1.4-.7-1.4-1.6 0-1.7 21.7-28.4 23.1-28.4.5 0 1.5 1.6 2.4 3.6zm-594.4 47.1c8.6 9.2 19.9 23.4 19.4 24.3-.4.6-2.1.8-4 .4-4.5-.8-7.1 1-38.5 27.4-15.1 12.7-18 16-18 20.8 0 1.9-.3 3.4-.7 3.3-1.5-.1-24.3-28.1-23.7-29.1.4-.5 2.1-.7 4-.3 4.3.8 6.4-.7 27.4-18.3 19.4-16.2 29-26 29-29.6 0-3.5 1-3.3 5.1 1.1zm481.3 33.5c-.5.7-5.7 8-11.7 16.3-21.2 29.1-30.5 39.3-40.7 44.6-4 2.1-5.9 2.3-18.5 2.5-19.2.2-23.7 1.5-36.3 11-11.9 9-18.1 12.4-43.7 23.5l-20 8.7-2.7-3.1c-4-4.5-6.2-10.9-5.1-14.4 1.2-3.7 7.8-8.6 15-11.3 3.2-1.2 15-4.1 26.3-6.6 20.7-4.4 29.6-6.8 31.6-8.5.6-.5 3.3-1.6 6-2.4 5.8-1.7 13.9-7 41.2-26.9 34.8-25.2 49.6-34.1 57.5-34.5 1.2-.1 1.6.3 1.1 1.1zm-446.7 6c2.3 5.1 29.5 37.9 38.6 46.7l3.5 3.3-8.5 10.9c-4.7 6-9 10.9-9.5 10.9-1.9 0-1.9-3.1.1-7.6 2.6-5.7 2.6-11.6.2-16.9-3.4-7.6-2.8-7.9-24.1 10.2-10.7 9-21.7 18.6-24.3 21.1-4.3 4.2-4.8 5.1-4.5 8.6.2 2.4-.2 4.1-.9 4.3-.6.2-4.7-3.8-9-8.9-4.3-5.1-9.9-11.6-12.5-14.4-5.3-5.6-6.4-9.1-2.5-8 7.1 2 6.9 2.1 17.3-6 15.3-12 39.4-32.4 39.4-33.4 0-1.3-6-5.7-10.5-7.5-3.3-1.4-4.7-1.5-10-.4-6.3 1.2-10.7.7-8.9-1.1 1-1 23.5-13.7 24.5-13.9.3-.1 1 .9 1.6 2.1zM513 319.6l3.5.6-6.7 6.2c-14 12.9-25.4 17.5-45.8 18.5-7.5.4-14.1 1.1-14.8 1.5-2.1 1.3-8.7-1.3-11.9-4.6-3.4-3.5-6.3-9.4-6.3-12.8 0-3.5 3-8.1 6.1-9.4 2.4-1 11.2-1.2 37.7-.9 19.1.2 36.3.6 38.2.9zm138.3 9.4c11.6 4.4 21.1 14.5 24.8 26.3 4.7 15.1.8 31.6-10.3 43.3-6.2 6.5-11.5 9.9-19.9 12.5-25.7 8-52.2-10.4-53.7-37.3-1.9-31.9 29.7-55.8 59.1-44.8zm-434.2 21.2c1.9 2.4 7.7 9.5 13.1 15.9 5.4 6.4 9.8 12.1 9.8 12.7 0 .8-1.7 1.1-4.7.9-4.2-.2-4.8.1-6.4 2.8-1 1.6-3.1 6.7-4.8 11.3l-3 8.4 4.2-.7c7.7-1.2 17.2-3.7 19.5-5.1 1.6-1.1 2.1-2.2 2-4.7-.2-2.1.2-3.2 1-3.2 1.9 0 18.3 19.8 17.2 20.9-.6.6-3.1.4-6.4-.4-6.4-1.5-15.7-.9-32.1 2-9.8 1.8-11.7 2.5-17.6 6.5-3.6 2.5-9.3 7.4-12.7 10.9-6.1 6.4-6.2 6.4-5.6 11 .8 5.6-1 6.2-4.5 1.5-1.3-1.8-7-8.7-12.8-15.5-8-9.5-10-12.6-8.8-13 .8-.4 2.8-.1 4.4.6 2.5 1 3.4.9 5.8-.6 5.8-3.7 19.9-15.6 22.5-19.1 5.4-7 13.8-32.7 13.8-41.9 0-6.8 1.6-7 6.1-1.2zm378.5 51c13.6 4.6 22.7 14.1 26 26.9 2.5 9.7.8 17.5-5.8 27.1-8 11.6-28.4 37-33.1 41.1-2.3 2-3.8.8-2.9-2.5.3-1.2-.5-2.9-1.9-4.4-2.9-3.1-29.1-25.4-41.3-35.2-8.3-6.7-9.2-7.1-12.6-6.6-2.3.4-4 .2-4.4-.5-1-1.6 26.3-34.2 32.3-38.5 13.9-10.2 28.5-12.7 43.7-7.4zm-304 49.5c20 6.7 33.3 27.8 30.4 48.3-2.6 18.4-16.7 32.3-35.9 35.3-29.5 4.5-55.8-24-49-53.2 3.5-15.4 17.3-28.8 32.9-32.1 5.8-1.2 15.4-.4 21.6 1.7zm230.6 14.9c7.9 3.9 9.5 5.1 8.6 6.2-.9 1-2.8 1.2-7.9.7-6-.6-7.5-.4-12.3 1.8-3 1.4-7.3 4.4-9.5 6.7-5.8 6-5.6 8.9 1.1 15.4l5.1 4.9 3-3.4c4.7-5.5 5.8-8.8 4.1-12.8-1.8-4.3-1.8-5.1.2-5.1 1.9 0 24.9 13.4 26 15.1.5.8-1 .9-5.2.4-3.7-.4-7.1-.2-8.9.5-3.3 1.2-11.5 8.8-11.4 10.5.1 1.3 12.7 12.4 19.6 17.2 6.8 4.7 10.2 4.8 14.8.3 7.2-7 9.6-21.2 5.5-32.7-2.2-6.3-2.5-8.9-1.1-9.7.7-.4 17.3 23.7 18.8 27.3.2.3-3.2 4.2-7.5 8.7-4.2 4.4-13.8 15.8-21.2 25.1-13.4 17.1-17 20.1-15.6 13 .6-2.7 0-3.6-5.1-8.3-8.8-8-30.5-25.6-40.2-32.4-7.4-5.3-9.1-6.1-11.8-5.7-2.5.4-3.3.2-3.3-.9 0-.9 4.7-6.8 10.3-13.2 14.6-16.5 23.5-27.7 25.9-32.7 2.5-5.1 1.2-5.3 18 3.1zm-159.5 62.7c13.9 17.6 25.8 30.7 28 30.7 2.2 0 1.4 1.4-7.3 13.3-4.5 6.1-8.2 10.3-8.7 9.8s-.2-3.9.8-7.9c1.9-7.8 1.2-13.9-2.5-21.1-2-4-7.3-9.1-9.4-9.1-1.6 0-9.7 5.2-11.9 7.7-1.7 2-1.6 2.2 3.2 7.3 4.7 5 5.1 5.2 8.6 4.6 2-.4 4.4-1 5.2-1.3 3-1.2.6 2.4-8.9 13.7-11 12.9-14.8 14.8-9.7 4.8 1.5-3 2-5.2 1.6-8.1-.6-4.5-5.4-12-8-12.5-1.6-.3-6.8 3.8-22.9 18.1-6.2 5.5-6.7 6.2-7 10.5-.2 2.5-.8 4.7-1.4 4.9-1 .3-10.8-10.8-21-24-3.1-4-3.5-5-2.3-5.8.8-.5 2.6-.6 4.2-.3 1.8.4 3.9-.1 6.2-1.4 7.5-4.5 39.4-31 45.3-37.6 2.2-2.5 3.2-4.7 3.2-7 0-3.2.6-4.6 2-4.6.4 0 6.1 6.9 12.7 15.3zm105.3-1.6c5.5 3.6 9.9 7.1 9.7 7.7-.2.6-4.4 1.3-9.8 1.6-7.5.4-10.3 1-13.7 3-7.9 4.5-10.9 13.3-6.2 18 2.7 2.7 5.6 2.5 11-.5 18.3-10.2 26.9-13.5 35.6-13.5 9.2 0 13.7 2.9 18.1 11.4 1.9 3.8 2.4 6.4 2.5 12 0 13.2-5.1 22.7-20.4 37.6-5.3 5.2-10.2 10.8-10.8 12.3-.5 1.6-1.4 2.7-1.8 2.5-2.1-.8-27.1-19.4-27.2-20.1 0-1.9 3.6-1.8 8.1.3 12.3 5.8 27.6.3 34-12.3 3.9-7.4 2.3-13.9-3.7-15.6-4.9-1.3-10.2.4-20 6.7-15.2 9.8-23.6 11.7-32 7.4-11-5.7-15.8-18-11.8-29.9 2.4-6.9 6.5-12.4 16.6-22.1 4.9-4.7 9.1-9.6 9.4-10.9.4-1.3 1-2.3 1.5-2.3s5.4 3 10.9 6.7zm-46.6 87.6c8.3 13.3 15 24.9 15 25.7 0 1.9-29.6 50.1-30.6 49.8-1.3-.5-30.9-49.1-30.6-50.3.4-1.6 30.2-49.5 30.8-49.5.3 0 7.2 10.9 15.4 24.3z"/><path d="M722 231.5c0 .9 11 19.5 11.6 19.5.2 0 2.7-1.5 5.5-3.4 2.7-1.9 5.8-3.8 6.9-4.1 1.1-.4 2-.9 2-1.3 0-.6-6.8-3.5-25.2-11-.4-.2-.8-.1-.8.3zM612.4 347.9c-4.3 2.6-6.8 9-5.4 14 2.5 9.5 14.5 21.1 28.9 27.9 8.4 4.1 17.1 4.7 21.7 1.8 3.4-2.3 6.4-7.5 6.4-11.1-.1-10.4-17.3-27.1-33.9-33-6-2.1-13.9-1.9-17.7.4zM559.9 419.6c-5.2 1.5-14 7.2-14.7 9.2-1 3.2 43.2 39.2 48.1 39.2 1.8 0 8.5-7.3 9.7-10.6 1.8-4.6 1.2-12.2-1.4-17.3-3.4-6.6-12.6-14.8-21.3-18.8-7.9-3.7-12.8-4.1-20.4-1.7zM286.3 466.4c-13.4 4.3-31.1 23.2-32.9 35.1-.8 5.7 2.2 12.7 6.5 14.9 9.1 4.7 25.8-3.3 36.7-17.6 6.2-8.3 8.4-13.2 8.4-19.3 0-10.6-8.3-16.4-18.7-13.1z"/></svg>